# This file uses centimeters as units for non-parametric coordinates.

mtllib gamelevelceling.mtl
g default
v 4.157241 27.886413 5.764346
v -4.157241 27.886413 5.764346
v 4.157241 27.759523 5.764346
v -4.157241 27.759523 5.764346
v 4.157241 27.759523 -5.780887
v -4.157241 27.759523 -5.780887
v 4.157241 27.886413 -5.780887
v -4.157241 27.886413 -5.780887
vt 0.375000 0.000000
vt 0.625000 0.000000
vt 0.375000 0.250000
vt 0.625000 0.250000
vt 0.375000 0.500000
vt 0.625000 0.500000
vt 0.375000 0.750000
vt 0.625000 0.750000
vt 0.875000 0.000000
vt 0.875000 0.250000
vt 0.125000 0.000000
vt 0.125000 0.250000
vn 0.000000 0.000000 1.000000
vn 0.000000 0.000000 1.000000
vn 0.000000 0.000000 1.000000
vn 0.000000 0.000000 1.000000
vn -0.000000 -1.000000 0.000000
vn -0.000000 -1.000000 0.000000
vn -0.000000 -1.000000 0.000000
vn -0.000000 -1.000000 0.000000
vn -0.000000 0.000000 -1.000000
vn -0.000000 0.000000 -1.000000
vn -0.000000 0.000000 -1.000000
vn -0.000000 0.000000 -1.000000
vn -1.000000 0.000000 0.000000
vn -1.000000 0.000000 0.000000
vn -1.000000 0.000000 0.000000
vn -1.000000 0.000000 0.000000
vn 1.000000 -0.000000 0.000000
vn 1.000000 -0.000000 0.000000
vn 1.000000 -0.000000 0.000000
vn 1.000000 -0.000000 0.000000
s off
g Bookshelf:pCube80 group44
usemtl initialShadingGroup
f 1/1/1 2/2/2 4/4/3 3/3/4
f 3/3/5 4/4/6 6/6/7 5/5/8
f 5/5/9 6/6/10 8/8/11 7/7/12
f 2/2/13 8/9/14 6/10/15 4/4/16
f 7/11/17 1/1/18 3/3/19 5/12/20
g default
v -70.492877 28.320896 -8.158411
v -70.492877 28.320896 -28.048294
v -70.492877 28.194006 -8.158411
v -70.492877 28.194006 -28.048294
v -62.156307 28.194006 -8.158411
v -62.156307 28.194006 -28.048294
v -62.156307 28.320896 -8.158411
v -62.156307 28.320896 -28.048294
vt 0.375000 0.000000
vt 0.625000 0.000000
vt 0.375000 0.250000
vt 0.625000 0.250000
vt 0.375000 0.500000
vt 0.625000 0.500000
vt 0.375000 0.750000
vt 0.625000 0.750000
vt 0.875000 0.000000
vt 0.875000 0.250000
vt 0.125000 0.000000
vt 0.125000 0.250000
vn -1.000000 -0.000000 -0.000000
vn -1.000000 -0.000000 -0.000000
vn -1.000000 -0.000000 -0.000000
vn -1.000000 -0.000000 -0.000000
vn 0.000000 -1.000000 0.000000
vn 0.000000 -1.000000 0.000000
vn 0.000000 -1.000000 0.000000
vn 0.000000 -1.000000 0.000000
vn 1.000000 0.000000 0.000000
vn 1.000000 0.000000 0.000000
vn 1.000000 0.000000 0.000000
vn 1.000000 0.000000 0.000000
vn 0.000000 -0.000000 -1.000000
vn 0.000000 -0.000000 -1.000000
vn 0.000000 -0.000000 -1.000000
vn 0.000000 -0.000000 -1.000000
vn -0.000000 0.000000 1.000000
vn -0.000000 0.000000 1.000000
vn -0.000000 0.000000 1.000000
vn -0.000000 0.000000 1.000000
s off
g group44 pCube112
usemtl initialShadingGroup
f 9/13/21 10/14/22 12/16/23 11/15/24
f 11/15/25 12/16/26 14/18/27 13/17/28
f 13/17/29 14/18/30 16/20/31 15/19/32
f 10/14/33 16/21/34 14/22/35 12/16/36
f 15/23/37 9/13/38 11/15/39 13/24/40
g default
v -69.651734 28.100613 -3.594631
v -32.218982 28.100613 -3.594631
v -69.651734 27.973723 -3.594631
v -32.218982 27.973723 -3.594631
v -69.651734 27.973723 3.226123
v -32.218982 27.973723 3.226123
v -69.651734 28.100613 3.226123
v -32.218982 28.100613 3.226123
vt 0.375000 0.000000
vt 0.625000 0.000000
vt 0.375000 0.250000
vt 0.625000 0.250000
vt 0.375000 0.500000
vt 0.625000 0.500000
vt 0.375000 0.750000
vt 0.625000 0.750000
vt 0.875000 0.000000
vt 0.875000 0.250000
vt 0.125000 0.000000
vt 0.125000 0.250000
vn 0.000000 -0.000000 -1.000000
vn 0.000000 -0.000000 -1.000000
vn 0.000000 -0.000000 -1.000000
vn 0.000000 -0.000000 -1.000000
vn 0.000000 -1.000000 0.000000
vn 0.000000 -1.000000 0.000000
vn 0.000000 -1.000000 0.000000
vn 0.000000 -1.000000 0.000000
vn 0.000000 0.000000 1.000000
vn 0.000000 0.000000 1.000000
vn 0.000000 0.000000 1.000000
vn 0.000000 0.000000 1.000000
vn 1.000000 0.000000 0.000000
vn 1.000000 0.000000 0.000000
vn 1.000000 0.000000 0.000000
vn 1.000000 0.000000 0.000000
vn -1.000000 -0.000000 0.000000
vn -1.000000 -0.000000 0.000000
vn -1.000000 -0.000000 0.000000
vn -1.000000 -0.000000 0.000000
s off
g group44 pCube110
usemtl initialShadingGroup
f 17/25/41 18/26/42 20/28/43 19/27/44
f 19/27/45 20/28/46 22/30/47 21/29/48
f 21/29/49 22/30/50 24/32/51 23/31/52
f 18/26/53 24/33/54 22/34/55 20/28/56
f 23/35/57 17/25/58 19/27/59 21/36/60
g default
v -69.447797 28.320896 26.732586
v -69.447797 28.320896 6.842703
v -69.447797 28.194006 26.732586
v -69.447797 28.194006 6.842703
v -62.627043 28.194006 26.732586
v -62.627043 28.194006 6.842703
v -62.627043 28.320896 26.732586
v -62.627043 28.320896 6.842703
vt 0.375000 0.000000
vt 0.625000 0.000000
vt 0.375000 0.250000
vt 0.625000 0.250000
vt 0.375000 0.500000
vt 0.625000 0.500000
vt 0.375000 0.750000
vt 0.625000 0.750000
vt 0.875000 0.000000
vt 0.875000 0.250000
vt 0.125000 0.000000
vt 0.125000 0.250000
vn -1.000000 -0.000000 -0.000000
vn -1.000000 -0.000000 -0.000000
vn -1.000000 -0.000000 -0.000000
vn -1.000000 -0.000000 -0.000000
vn 0.000000 -1.000000 0.000000
vn 0.000000 -1.000000 0.000000
vn 0.000000 -1.000000 0.000000
vn 0.000000 -1.000000 0.000000
vn 1.000000 0.000000 0.000000
vn 1.000000 0.000000 0.000000
vn 1.000000 0.000000 0.000000
vn 1.000000 0.000000 0.000000
vn 0.000000 -0.000000 -1.000000
vn 0.000000 -0.000000 -1.000000
vn 0.000000 -0.000000 -1.000000
vn 0.000000 -0.000000 -1.000000
vn -0.000000 0.000000 1.000000
vn -0.000000 0.000000 1.000000
vn -0.000000 0.000000 1.000000
vn -0.000000 0.000000 1.000000
s off
g group44 pCube111
usemtl initialShadingGroup
f 25/37/61 26/38/62 28/40/63 27/39/64
f 27/39/65 28/40/66 30/42/67 29/41/68
f 29/41/69 30/42/70 32/44/71 31/43/72
f 26/38/73 32/45/74 30/46/75 28/40/76
f 31/47/77 25/37/78 27/39/79 29/48/80
g default
v -39.293571 28.265174 31.695838
v -39.293571 28.265174 5.070341
v -39.293571 28.138284 31.695838
v -39.293571 28.138284 5.070341
v -32.472818 28.138284 31.695838
v -32.472818 28.138284 5.070341
v -32.472818 28.265174 31.695838
v -32.472818 28.265174 5.070341
vt 0.375000 0.000000
vt 0.625000 0.000000
vt 0.375000 0.250000
vt 0.625000 0.250000
vt 0.375000 0.500000
vt 0.625000 0.500000
vt 0.375000 0.750000
vt 0.625000 0.750000
vt 0.875000 0.000000
vt 0.875000 0.250000
vt 0.125000 0.000000
vt 0.125000 0.250000
vn -1.000000 -0.000000 -0.000000
vn -1.000000 -0.000000 -0.000000
vn -1.000000 -0.000000 -0.000000
vn -1.000000 -0.000000 -0.000000
vn 0.000000 -1.000000 0.000000
vn 0.000000 -1.000000 0.000000
vn 0.000000 -1.000000 0.000000
vn 0.000000 -1.000000 0.000000
vn 1.000000 0.000000 0.000000
vn 1.000000 0.000000 0.000000
vn 1.000000 0.000000 0.000000
vn 1.000000 0.000000 0.000000
vn 0.000000 0.000000 -1.000000
vn 0.000000 0.000000 -1.000000
vn 0.000000 0.000000 -1.000000
vn 0.000000 0.000000 -1.000000
vn -0.000000 -0.000000 1.000000
vn -0.000000 -0.000000 1.000000
vn -0.000000 -0.000000 1.000000
vn -0.000000 -0.000000 1.000000
s off
g group44 pCube107
usemtl initialShadingGroup
f 33/49/81 34/50/82 36/52/83 35/51/84
f 35/51/85 36/52/86 38/54/87 37/53/88
f 37/53/89 38/54/90 40/56/91 39/55/92
f 34/50/93 40/57/94 38/58/95 36/52/96
f 39/59/97 33/49/98 35/51/99 37/60/100
g default
v -69.651734 28.375918 26.372086
v -32.218982 28.375918 26.372086
v -69.651734 28.249028 26.372086
v -32.218982 28.249028 26.372086
v -69.651734 28.249028 33.192840
v -32.218982 28.249028 33.192840
v -69.651734 28.375918 33.192840
v -32.218982 28.375918 33.192840
vt 0.375000 0.000000
vt 0.625000 0.000000
vt 0.375000 0.250000
vt 0.625000 0.250000
vt 0.375000 0.500000
vt 0.625000 0.500000
vt 0.375000 0.750000
vt 0.625000 0.750000
vt 0.875000 0.000000
vt 0.875000 0.250000
vt 0.125000 0.000000
vt 0.125000 0.250000
vn 0.000000 -0.000000 -1.000000
vn 0.000000 -0.000000 -1.000000
vn 0.000000 -0.000000 -1.000000
vn 0.000000 -0.000000 -1.000000
vn 0.000000 -1.000000 0.000000
vn 0.000000 -1.000000 0.000000
vn 0.000000 -1.000000 0.000000
vn 0.000000 -1.000000 0.000000
vn 0.000000 0.000000 1.000000
vn 0.000000 0.000000 1.000000
vn 0.000000 0.000000 1.000000
vn 0.000000 0.000000 1.000000
vn 1.000000 0.000000 0.000000
vn 1.000000 0.000000 0.000000
vn 1.000000 0.000000 0.000000
vn 1.000000 0.000000 0.000000
vn -1.000000 -0.000000 0.000000
vn -1.000000 -0.000000 0.000000
vn -1.000000 -0.000000 0.000000
vn -1.000000 -0.000000 0.000000
s off
g group44 pCube109
usemtl initialShadingGroup
f 41/61/101 42/62/102 44/64/103 43/63/104
f 43/63/105 44/64/106 46/66/107 45/65/108
f 45/65/109 46/66/110 48/68/111 47/67/112
f 42/62/113 48/69/114 46/70/115 44/64/116
f 47/71/117 41/61/118 43/63/119 45/72/120
g default
v -32.472818 28.328284 -35.715190
v -32.472818 28.328284 0.062889
v -32.472818 28.201394 -35.715190
v -32.472818 28.201394 0.062889
v -39.293571 28.201394 -35.715192
v -39.293571 28.201394 0.062889
v -39.293571 28.328284 -35.715192
v -39.293571 28.328284 0.062889
vt 0.375000 0.000000
vt 0.625000 0.000000
vt 0.375000 0.250000
vt 0.625000 0.250000
vt 0.375000 0.500000
vt 0.625000 0.500000
vt 0.375000 0.750000
vt 0.625000 0.750000
vt 0.875000 0.000000
vt 0.875000 0.250000
vt 0.125000 0.000000
vt 0.125000 0.250000
vn 1.000000 -0.000000 -0.000000
vn 1.000000 -0.000000 -0.000000
vn 1.000000 -0.000000 -0.000000
vn 1.000000 -0.000000 -0.000000
vn -0.000000 -1.000000 0.000000
vn -0.000000 -1.000000 0.000000
vn -0.000000 -1.000000 0.000000
vn -0.000000 -1.000000 0.000000
vn -1.000000 0.000000 0.000000
vn -1.000000 0.000000 0.000000
vn -1.000000 0.000000 0.000000
vn -1.000000 0.000000 0.000000
vn 0.000000 -0.000000 1.000000
vn 0.000000 -0.000000 1.000000
vn 0.000000 -0.000000 1.000000
vn 0.000000 -0.000000 1.000000
vn 0.000000 -0.000000 -1.000000
vn 0.000000 -0.000000 -1.000000
vn 0.000000 -0.000000 -1.000000
vn 0.000000 -0.000000 -1.000000
s off
g group44 pCube106
usemtl initialShadingGroup
f 49/73/121 50/74/122 52/76/123 51/75/124
f 51/75/125 52/76/126 54/78/127 53/77/128
f 53/77/129 54/78/130 56/80/131 55/79/132
f 50/74/133 56/81/134 54/82/135 52/76/136
f 55/83/137 49/73/138 51/75/139 53/84/140
g default
v -30.269788 27.912563 -2.013491
v -3.644291 27.912563 -2.013491
v -30.269788 27.785673 -2.013491
v -3.644291 27.785673 -2.013491
v -30.269788 27.785673 1.901519
v -3.644291 27.785673 1.901519
v -30.269788 27.912563 1.901519
v -3.644291 27.912563 1.901519
vt 0.375000 0.000000
vt 0.625000 0.000000
vt 0.375000 0.250000
vt 0.625000 0.250000
vt 0.375000 0.500000
vt 0.625000 0.500000
vt 0.375000 0.750000
vt 0.625000 0.750000
vt 0.875000 0.000000
vt 0.875000 0.250000
vt 0.125000 0.000000
vt 0.125000 0.250000
vn 0.000000 -0.000000 -1.000000
vn 0.000000 -0.000000 -1.000000
vn 0.000000 -0.000000 -1.000000
vn 0.000000 -0.000000 -1.000000
vn 0.000000 -1.000000 0.000000
vn 0.000000 -1.000000 0.000000
vn 0.000000 -1.000000 0.000000
vn 0.000000 -1.000000 0.000000
vn 0.000000 0.000000 1.000000
vn 0.000000 0.000000 1.000000
vn 0.000000 0.000000 1.000000
vn 0.000000 0.000000 1.000000
vn 1.000000 0.000000 0.000000
vn 1.000000 0.000000 0.000000
vn 1.000000 0.000000 0.000000
vn 1.000000 0.000000 0.000000
vn -1.000000 -0.000000 0.000000
vn -1.000000 -0.000000 0.000000
vn -1.000000 -0.000000 0.000000
vn -1.000000 -0.000000 0.000000
s off
g group44 Bookshelf:pCube81
usemtl initialShadingGroup
f 57/85/141 58/86/142 60/88/143 59/87/144
f 59/87/145 60/88/146 62/90/147 61/89/148
f 61/89/149 62/90/150 64/92/151 63/91/152
f 58/86/153 64/93/154 62/94/155 60/88/156
f 63/95/157 57/85/158 59/87/159 61/96/160
g default
v -30.173428 28.046423 7.746835
v -41.331438 28.046423 7.746835
v -30.173428 27.841323 7.746835
v -41.331438 27.841323 7.746835
v -30.173428 27.841323 -7.746835
v -41.331438 27.841323 -7.746835
v -30.173428 28.046423 -7.746835
v -41.331438 28.046423 -7.746835
vt 0.375000 0.000000
vt 0.625000 0.000000
vt 0.375000 0.250000
vt 0.625000 0.250000
vt 0.375000 0.500000
vt 0.625000 0.500000
vt 0.375000 0.750000
vt 0.625000 0.750000
vt 0.875000 0.000000
vt 0.875000 0.250000
vt 0.125000 0.000000
vt 0.125000 0.250000
vn 0.000000 0.000000 1.000000
vn 0.000000 0.000000 1.000000
vn 0.000000 0.000000 1.000000
vn 0.000000 0.000000 1.000000
vn -0.000000 -1.000000 0.000000
vn -0.000000 -1.000000 0.000000
vn -0.000000 -1.000000 0.000000
vn -0.000000 -1.000000 0.000000
vn -0.000000 0.000000 -1.000000
vn -0.000000 0.000000 -1.000000
vn -0.000000 0.000000 -1.000000
vn -0.000000 0.000000 -1.000000
vn -1.000000 0.000000 0.000000
vn -1.000000 0.000000 0.000000
vn -1.000000 0.000000 0.000000
vn -1.000000 0.000000 0.000000
vn 1.000000 -0.000000 0.000000
vn 1.000000 -0.000000 0.000000
vn 1.000000 -0.000000 0.000000
vn 1.000000 -0.000000 0.000000
s off
g group44 pCube105
usemtl initialShadingGroup
f 65/97/161 66/98/162 68/100/163 67/99/164
f 67/99/165 68/100/166 70/102/167 69/101/168
f 69/101/169 70/102/170 72/104/171 71/103/172
f 66/98/173 72/105/174 70/106/175 68/100/176
f 71/107/177 65/97/178 67/99/179 69/108/180
g default
v -70.158490 28.303930 -36.162102
v -33.379601 28.303930 -36.162102
v -70.158490 28.177040 -36.162102
v -33.379601 28.177040 -36.162102
v -70.158490 28.177040 -26.446587
v -33.379601 28.177040 -26.446587
v -70.158490 28.303930 -26.446587
v -33.379601 28.303930 -26.446587
vt 0.375000 0.000000
vt 0.625000 0.000000
vt 0.375000 0.250000
vt 0.625000 0.250000
vt 0.375000 0.500000
vt 0.625000 0.500000
vt 0.375000 0.750000
vt 0.625000 0.750000
vt 0.875000 0.000000
vt 0.875000 0.250000
vt 0.125000 0.000000
vt 0.125000 0.250000
vn 0.000000 -0.000000 -1.000000
vn 0.000000 -0.000000 -1.000000
vn 0.000000 -0.000000 -1.000000
vn 0.000000 -0.000000 -1.000000
vn 0.000000 -1.000000 0.000000
vn 0.000000 -1.000000 0.000000
vn 0.000000 -1.000000 0.000000
vn 0.000000 -1.000000 0.000000
vn 0.000000 0.000000 1.000000
vn 0.000000 0.000000 1.000000
vn 0.000000 0.000000 1.000000
vn 0.000000 0.000000 1.000000
vn 1.000000 0.000000 0.000000
vn 1.000000 0.000000 0.000000
vn 1.000000 0.000000 0.000000
vn 1.000000 0.000000 0.000000
vn -1.000000 -0.000000 0.000000
vn -1.000000 -0.000000 0.000000
vn -1.000000 -0.000000 0.000000
vn -1.000000 -0.000000 0.000000
s off
g group44 pCube108
usemtl initialShadingGroup
f 73/109/181 74/110/182 76/112/183 75/111/184
f 75/111/185 76/112/186 78/114/187 77/113/188
f 77/113/189 78/114/190 80/116/191 79/115/192
f 74/110/193 80/117/194 78/118/195 76/112/196
f 79/119/197 73/109/198 75/111/199 77/120/200
g default
v -107.495553 37.914230 -3.594631
v -70.062801 37.914230 -3.594631
v -107.495553 37.787340 -3.594631
v -70.062801 37.787340 -3.594631
v -107.495553 37.787340 3.226123
v -70.062801 37.787340 3.226123
v -107.495553 37.914230 3.226123
v -70.062801 37.914230 3.226123
vt 0.375000 0.000000
vt 0.625000 0.000000
vt 0.375000 0.250000
vt 0.625000 0.250000
vt 0.375000 0.500000
vt 0.625000 0.500000
vt 0.375000 0.750000
vt 0.625000 0.750000
vt 0.875000 0.000000
vt 0.875000 0.250000
vt 0.125000 0.000000
vt 0.125000 0.250000
vn 0.000000 0.000000 -1.000000
vn 0.000000 0.000000 -1.000000
vn 0.000000 0.000000 -1.000000
vn 0.000000 0.000000 -1.000000
vn 0.000000 -1.000000 -0.000000
vn 0.000000 -1.000000 -0.000000
vn 0.000000 -1.000000 -0.000000
vn 0.000000 -1.000000 -0.000000
vn 0.000000 -0.000000 1.000000
vn 0.000000 -0.000000 1.000000
vn 0.000000 -0.000000 1.000000
vn 0.000000 -0.000000 1.000000
vn 1.000000 0.000000 0.000000
vn 1.000000 0.000000 0.000000
vn 1.000000 0.000000 0.000000
vn 1.000000 0.000000 0.000000
vn -1.000000 0.000000 -0.000000
vn -1.000000 0.000000 -0.000000
vn -1.000000 0.000000 -0.000000
vn -1.000000 0.000000 -0.000000
s off
g group44 pCube114
usemtl initialShadingGroup
f 81/121/201 82/122/202 84/124/203 83/123/204
f 83/123/205 84/124/206 86/126/207 85/125/208
f 85/125/209 86/126/210 88/128/211 87/127/212
f 82/122/213 88/129/214 86/130/215 84/124/216
f 87/131/217 81/121/218 83/123/219 85/132/220
g default
v -107.198033 41.749803 12.351149
v -133.130968 41.749803 12.351149
v -107.198033 41.283398 12.351149
v -133.130968 41.283398 12.351149
v -107.198033 41.283398 -12.719657
v -133.130968 41.283398 -12.719657
v -107.198033 41.749803 -12.719657
v -133.130968 41.749803 -12.719657
vt 0.375000 0.000000
vt 0.625000 0.000000
vt 0.375000 0.250000
vt 0.625000 0.250000
vt 0.375000 0.500000
vt 0.625000 0.500000
vt 0.375000 0.750000
vt 0.625000 0.750000
vt 0.875000 0.000000
vt 0.875000 0.250000
vt 0.125000 0.000000
vt 0.125000 0.250000
vn 0.000000 0.000000 1.000000
vn 0.000000 0.000000 1.000000
vn 0.000000 0.000000 1.000000
vn 0.000000 0.000000 1.000000
vn -0.000000 -1.000000 0.000000
vn -0.000000 -1.000000 0.000000
vn -0.000000 -1.000000 0.000000
vn -0.000000 -1.000000 0.000000
vn -0.000000 0.000000 -1.000000
vn -0.000000 0.000000 -1.000000
vn -0.000000 0.000000 -1.000000
vn -0.000000 0.000000 -1.000000
vn -1.000000 0.000000 0.000000
vn -1.000000 0.000000 0.000000
vn -1.000000 0.000000 0.000000
vn -1.000000 0.000000 0.000000
vn 1.000000 -0.000000 0.000000
vn 1.000000 -0.000000 0.000000
vn 1.000000 -0.000000 0.000000
vn 1.000000 -0.000000 0.000000
s off
g group44 pCube115
usemtl initialShadingGroup
f 89/133/221 90/134/222 92/136/223 91/135/224
f 91/135/225 92/136/226 94/138/227 93/137/228
f 93/137/229 94/138/230 96/140/231 95/139/232
f 90/134/233 96/141/234 94/142/235 92/136/236
f 95/143/237 89/133/238 91/135/239 93/144/240
g default
v -60.985544 28.253982 7.069497
v -71.915232 28.253982 7.069497
v -60.985544 28.053079 7.069497
v -71.915232 28.053079 7.069497
v -60.985544 28.053079 -8.107131
v -71.915232 28.053079 -8.107131
v -60.985544 28.253982 -8.107131
v -71.915232 28.253982 -8.107131
vt 0.375000 0.000000
vt 0.625000 0.000000
vt 0.375000 0.250000
vt 0.625000 0.250000
vt 0.375000 0.500000
vt 0.625000 0.500000
vt 0.375000 0.750000
vt 0.625000 0.750000
vt 0.875000 0.000000
vt 0.875000 0.250000
vt 0.125000 0.000000
vt 0.125000 0.250000
vn 0.000000 0.000000 1.000000
vn 0.000000 0.000000 1.000000
vn 0.000000 0.000000 1.000000
vn 0.000000 0.000000 1.000000
vn -0.000000 -1.000000 0.000000
vn -0.000000 -1.000000 0.000000
vn -0.000000 -1.000000 0.000000
vn -0.000000 -1.000000 0.000000
vn -0.000000 0.000000 -1.000000
vn -0.000000 0.000000 -1.000000
vn -0.000000 0.000000 -1.000000
vn -0.000000 0.000000 -1.000000
vn -1.000000 0.000000 0.000000
vn -1.000000 0.000000 0.000000
vn -1.000000 0.000000 0.000000
vn -1.000000 0.000000 0.000000
vn 1.000000 -0.000000 0.000000
vn 1.000000 -0.000000 0.000000
vn 1.000000 -0.000000 0.000000
vn 1.000000 -0.000000 0.000000
s off
g group44 pCube113
usemtl initialShadingGroup
f 97/145/241 98/146/242 100/148/243 99/147/244
f 99/147/245 100/148/246 102/150/247 101/149/248
f 101/149/249 102/150/250 104/152/251 103/151/252
f 98/146/253 104/153/254 102/154/255 100/148/256
f 103/155/257 97/145/258 99/147/259 101/156/260
